<svg id="_x30_1" enable-background="new 0 0 496 400" height="512" viewBox="0 0 496 400" width="512" xmlns="http://www.w3.org/2000/svg"><g><g><g><path d="m312.84 89.69 15.16 30.31h-16c-8.84 0-16 7.16-16 16v8c0-13.25-10.75-24-24-24h-80c-13.25 0-24 10.75-24 24v8c-4.42 0-8.42 1.79-11.32 4.68l-2.81-2.81c-6.32-6.32-14.89-9.87-23.83-9.87-5.64 0-11.08 1.41-15.9 3.99s-9.02 6.33-12.15 11.02l-5.99 8.99 5.99 8.99c6.26 9.38 16.78 15.01 28.05 15.01 4.47 0 8.85-.89 12.9-2.56 4.05-1.68 7.77-4.15 10.93-7.31l2.81-2.81c2.9 2.89 6.9 4.68 11.32 4.68v8c0 13.25 10.75 24 24 24h80c13.25 0 24-10.75 24-24v8c0 8.84 7.16 16 16 16h16l-14.4 28.8-.76 1.51c-5.42 10.84-16.5 17.69-28.62 17.69h-164.22c-17.67 0-32-14.33-32-32v-12.22-114.04-1.74c0-17.67 14.33-32 32-32h164.22c12.12 0 23.2 6.85 28.62 17.69z" fill="#d3a06c"/></g><g><path d="m421.92 304.88 42.08 63.12-65.82 21.94c-4.09 1.36-8.38 2.06-12.7 2.06-6.23 0-12.38-1.45-17.96-4.24l-247.52-123.76h164.22c12.12 0 23.2-6.85 28.62-17.69l.76-1.51 92.86 46.43c6.25 3.13 11.58 7.83 15.46 13.65z" fill="#cf9e76"/></g><g><path d="m88 105.74v114.04c-49.1-8.79-80-21.56-80-35.78v-120c0 5.57 3.47 10.94 9.94 16 12.83 10.06 37.42 18.93 70.06 25.74z" fill="#cf9e76"/></g><g><path d="m488 64v120c0 14.22-30.9 26.99-80 35.78v-107.78c0-2.26-.94-4.3-2.44-5.75 33.85-6.88 59.36-15.95 72.5-26.25 6.47-5.07 9.94-10.44 9.94-16z" fill="#cf9e76"/></g><g><path d="m488 64c0 5.56-3.47 10.93-9.94 16-29.5-23.13-121.34-40-230.06-40s-200.56 16.87-230.06 40c-6.47-5.06-9.94-10.43-9.94-16 0-30.93 107.45-56 240-56s240 25.07 240 56z" fill="#dfb28b"/></g><g><path d="m405.56 106.25c1.5 1.45 2.44 3.49 2.44 5.75v107.78 4.22c0 4.42-3.58 8-8 8h-48c-4.42 0-8-3.58-8-8v-8-96-8c0-4.42 3.58-8 8-8h48c2.16 0 4.12.86 5.56 2.25z" fill="#aab2bd"/></g><g><path d="m344 120v96h-16-16c-8.84 0-16-7.16-16-16v-8-8-32-8-8c0-8.84 7.16-16 16-16h16z" fill="#ccd1d9"/></g><g><path d="m156.68 179.32-2.81 2.81c-3.16 3.16-6.88 5.63-10.93 7.31-4.05 1.67-8.43 2.56-12.9 2.56-11.27 0-21.79-5.63-28.05-15.01l-5.99-8.99 5.99-8.99c3.13-4.69 7.33-8.44 12.15-11.02s10.26-3.99 15.9-3.99c8.94 0 17.51 3.55 23.83 9.87l2.81 2.81c-2.89 2.9-4.68 6.9-4.68 11.32s1.79 8.42 4.68 11.32z" fill="#ffc729"/></g><g><path d="m296 184v8c0 13.25-10.75 24-24 24h-80c-13.25 0-24-10.75-24-24v-8z" fill="#ffc729"/></g><g><path d="m296 144v8h-128v-8c0-13.25 10.75-24 24-24h80c13.25 0 24 10.75 24 24z" fill="#ffc729"/></g><g><path d="m156.68 156.68c2.9-2.89 6.9-4.68 11.32-4.68h128v32h-128c-4.42 0-8.42-1.79-11.32-4.68-2.89-2.9-4.68-6.9-4.68-11.32s1.79-8.42 4.68-11.32z" fill="#fcd770"/></g></g><g><circle cx="376" cy="136" r="8"/><circle cx="376" cy="168" r="8"/><circle cx="376" cy="200" r="8"/><circle cx="360" cy="328" r="8"/><circle cx="328" cy="312" r="8"/><circle cx="296" cy="296" r="8"/><path d="m419.523 16.611c-45.908-10.712-106.823-16.611-171.523-16.611s-125.615 5.899-171.523 16.611c-50.747 11.841-76.477 27.785-76.477 47.389v120c0 10.567 8.629 19.481 26.379 27.252 13.15 5.757 31.175 10.851 53.621 15.172v5.576c0 21.389 16.875 38.909 38.011 39.95l245.931 122.965c6.654 3.327 14.102 5.085 21.54 5.085 5.186 0 10.311-.832 15.231-2.472l75.753-25.251-47.893-71.84c-4.643-6.963-11.052-12.621-18.536-16.363l-85.704-42.852 8.611-17.222h3.056c0 8.822 7.178 16 16 16h48c7.982 0 14.599-5.882 15.79-13.536 22.543-4.329 40.64-9.437 53.831-15.212 17.75-7.771 26.379-16.685 26.379-27.252v-120c0-19.604-25.73-35.548-76.477-47.389zm-339.411 15.581c44.752-10.441 104.376-16.192 167.888-16.192s123.136 5.751 167.888 16.192c50.609 11.81 64.112 25.55 64.112 31.808 0 1.561-.79 3.522-2.67 5.761-36.339-22.75-126.424-37.761-229.33-37.761-102.896 0-192.974 15.008-229.319 37.755-1.889-2.243-2.681-4.203-2.681-5.755 0-6.258 13.503-19.998 64.112-31.808zm-64.112 151.808v-95.451c13.214 9.168 34.586 17.072 64 23.642v97.93c-51.94-10.376-64-22.5-64-26.121zm104.97-67.717 1.373 1.373 11.315-11.313-1.374-1.374c-2.763-2.762-4.284-6.435-4.284-10.34v-.444c0-3.789 1.478-7.346 4.161-10.014 2.706-2.69 6.334-4.172 10.217-4.172h.968c4.45 0 8.633 1.732 11.779 4.879s4.879 7.329 4.878 11.779v.718c-.001 16.888-13.74 30.625-30.626 30.625h-.393c-15.408 0-28.816-10.22-32.96-24.974.449-11.189 8.591-20.429 19.271-22.56-2.15 4.194-3.296 8.866-3.296 13.72v.444c.001 8.18 3.187 15.87 8.971 21.653zm151.03 91.717h-80c-8.822 0-16-7.178-16-16h112c0 8.822-7.178 16-16 16zm-161.087-67.353c-5.863 3.025-10.992 7.445-14.913 12.995v-21.97c4.389 3.818 9.43 6.866 14.913 8.975zm177.087 35.353h-120c-4.411 0-8-3.589-8-8s3.589-8 8-8h120zm-179.35-3.446-3.035-4.554 3.036-4.554c4.778-7.167 12.773-11.446 21.388-11.446 5.994 0 11.674 2.038 16.25 5.785-1.466 3.102-2.289 6.564-2.289 10.215 0 3.652.823 7.113 2.288 10.215-4.576 3.747-10.256 5.785-16.25 5.785-8.614 0-16.609-4.279-21.388-11.446zm67.35-28.554c0-8.822 7.178-16 16-16h80c8.822 0 16 7.178 16 16zm-16 0v1.376c-.832.295-1.644.631-2.431 1.012-2.898-2.555-6.091-4.672-9.504-6.31 6.076-2.669 11.481-6.59 15.876-11.446-2.51 4.564-3.941 9.801-3.941 15.368zm-64 38.359c3.921 5.549 9.05 9.969 14.913 12.994-5.483 2.109-10.524 5.157-14.913 8.976zm61.569 7.253c.787.381 1.599.717 2.431 1.012v1.376c0 5.566 1.431 10.803 3.941 15.368-4.396-4.856-9.801-8.776-15.876-11.446 3.413-1.638 6.606-3.756 9.504-6.31zm136.125-69.108c-5.707-5.274-13.329-8.504-21.694-8.504h-80c-8.894 0-16.948 3.65-22.754 9.527 4.286-7.048 6.756-15.316 6.757-24.15v-.718c0-5.957-1.586-11.67-4.555-16.659h112.775c9.149 0 17.375 5.084 21.466 13.268l9.367 18.732h-3.056c-7.331 0-13.9 3.307-18.306 8.504zm-197.669 112.47c4.144-14.754 17.552-24.974 32.96-24.974h.393c16.886 0 30.625 13.737 30.625 30.623v.72c0 4.449-1.732 8.632-4.878 11.778s-7.33 4.879-11.779 4.879h-.968c-3.882 0-7.511-1.481-10.217-4.172-2.684-2.668-4.161-6.225-4.161-10.014v-.444c0-3.905 1.521-7.578 4.285-10.341l1.373-1.373-11.315-11.313-1.372 1.372c-5.785 5.785-8.971 13.475-8.971 21.655v.444c0 4.854 1.145 9.526 3.296 13.72-10.68-2.131-18.822-11.371-19.271-22.56zm319.236 76.339 36.273 54.41-55.88 18.626c-8.001 2.666-17.017 2.026-24.557-1.744l-217.209-108.605h130.335c13.108 0 25.065-6.273 32.5-16.695l86.159 43.08c4.998 2.499 9.278 6.278 12.379 10.928zm-109.572-66.581c-4.091 8.184-12.317 13.268-21.466 13.268h-112.775c2.969-4.989 4.555-10.701 4.555-16.658v-.72c-.001-8.833-2.471-17.101-6.756-24.148 5.805 5.876 13.86 9.526 22.753 9.526h80c8.365 0 15.987-3.23 21.694-8.504 4.406 5.197 10.975 8.504 18.306 8.504h3.056zm6.311-34.732c-4.411 0-8-3.589-8-8v-64c0-4.411 3.589-8 8-8h24v80zm24-96h-3.056l-12.944-25.889c-6.819-13.638-20.528-22.111-35.777-22.111h-140.877-.968-22.378c-19.307 0-35.462 13.749-39.19 31.97-22.531-5.201-37.819-10.785-47.855-15.96 15.578-8.037 40.374-15.272 71.7-20.806 41.488-7.33 91.055-11.204 143.345-11.204s101.857 3.874 143.345 11.203c31.337 5.536 56.139 12.775 71.717 20.815-11.186 5.767-28.887 12.035-55.858 17.715-2.168-1.099-4.611-1.733-7.204-1.733h-48c-8.822 0-16 7.178-16 16zm64 112h-48v-112h48l.01 112s-.003 0-.01 0zm16-13.879v-97.928c29.415-6.561 50.787-14.46 64-23.629v95.436c0 3.621-12.06 15.745-64 26.121z"/><path d="m369.167 336h53.666v16h-53.666z" transform="matrix(.447 -.894 .894 .447 -88.791 544.325)"/></g></g></svg>