<svg id="Layer_1" enable-background="new 0 0 50 50" height="512" viewBox="0 0 50 50" width="512" xmlns="http://www.w3.org/2000/svg"><g id="_x38_9"><path d="m35.9385262 10.6927052-.417202 2.5818834-4.5576706-.738555.4154625-2.5917406c.1735249-1.0866594 1.2006073-1.8266268 2.2974777-1.6548023l.6077385.1058693c1.0963859.1719093 1.8360557 1.1989241 1.6541939 2.2973452z" fill="#7979f7"/><path d="m11.6438131 27.6081886 2.8282108-8.9764957c1.7967081-5.7025928 7.4131212-9.3055105 13.345542-8.5611391l6.7102623.8419724.647419.1257124c10.1804237 1.9767818 16.2608719 12.4997425 12.8896103 22.3070488l-.0000076.0000191s-4.447876 2.3850937-18.6617527-4.1416836c0-.0000001-6.8974343-3.432602-17.7592841-1.5954343z" fill="#f9b938"/><path d="m48.0629997 33.3492088s-.7900391.4200439-2.7700195.4200439c-2.7197266 0-7.6699219-.7900391-15.8901386-4.5700665 0 0-6.8999023-3.4299316-17.7597656-1.5899658l.8100586-2.5599365c9.5698242-1.0600586 15.5297852 1.9099121 15.5297852 1.9099121 8.2202168 3.7700195 13.1699238 4.5600586 15.8901386 4.5600586 1.9902344 0 2.7797852-.4200439 2.7797852-.4200439 1.6000977-4.6600342 1.0703125-9.4799805-1.0195313-13.4699707 3.2099609 4.3399659 4.3496093 10.1400147 2.4296874 15.7199688z" fill="#ecb021"/><path d="m40.9531364 33.259243c-2.8100586-.5800781-6.5800781-1.7800274-11.5502949-4.0600567 0 0-3.8496094-1.9199219-10.3295898-2.1199951l2.6699219-8.4399414c1.3100586-4.1500244 4.6201172-7.1800537 8.6201172-8.25l4.1596699.5299072.6503906.1201172c.4897461.0899658.9697266.2099609 1.4399414.3399658 4.4897461 6.0699463 6.3295898 14.0299073 4.3398437 21.880003z" fill="#fc6559"/><path d="m41.0732536 32.7492332c-.0400391.1699219-.0800781.3399658-.1201172.5100098-2.8100586-.5800781-6.5800781-1.7800274-11.5502949-4.0600567 0 0-3.8496094-1.9199219-10.3295898-2.1199951l2.6699219-8.4399414c1.3100586-4.1500244 4.6201172-7.1800537 8.6201172-8.25l1.5498047.1999512c-3.699707 1.210083-6.7202148 4.1300049-7.9599609 8.0500488l-2.6699219 8.4399414c6.4799805.2000732 10.3300781 2.1199951 10.3300781 2.1199951 3.8295917 1.7600098 6.9497089 2.8701153 9.4599628 3.5500469z" fill="#f05543"/><path d="m40.8555565 33.2396126s-4.3938675 14.7359581-21.3498955 5.3915787c-10.0715608-5.5539933-13.7304096-6.9154377-15.0376539-7.1088238l7.1783237-3.9141788c10.8605909-1.8410397 17.7605438 1.5935459 17.7605438 1.5935459 4.9120799 2.2586879 8.6559153 3.4499759 11.4486819 4.037878z" fill="#7979f7"/><g opacity=".3"><g><path d="m21.07374 35.7853661c-.3623047-.2001953-.4941406-.65625-.2949219-1.0195313s.6533203-.4931641 1.0195313-.2949219c4.9242077 2.7139549 7.999527 2.4939575 8.1005859 2.5107422.4365234.0351563.7578125.3173828.7685547.7314453.0097656.4140625-.3173828.7578125-.7314453.7685547-.1881981-.0303612-3.269989.3846092-8.8623047-2.696289z" fill="#fff"/></g><g><path d="m32.544445 37.2248192c-.1992188-.3623047-.0673828-.8183594.2958984-1.0185547.5039063-.2773438.9814453-.6337891 1.4179688-1.0605469.296875-.2880859.7714844-.2832031 1.0605469.0136719.2890625.2958984.2832031.7705078-.0136719 1.0605469-.5332031.5205078-1.1191406.9580078-1.7421875 1.3007813-.3649063.1996078-.8192367.0657272-1.0185547-.2958985z" fill="#fff"/></g></g><path d="m40.8530388 33.2392235s-4.3896484 14.7399902-21.3500996 5.3900146c-10.0698242-5.5500488-13.7299804-6.9100322-15.0395508-7.1099834l2.4394531-1.3300781c2.2402344.9100342 6.0800781 2.7499981 12.6000977 6.3500957 13.0102558 7.1599121 18.6201191.1599121 20.5302753-3.4899902.2797852.0699463.5600587.1298828.8198243.1899414z" fill="#5e5eef"/><path d="m13.3792515 35.3513718s-6.9233718 5.85569-10.7910929 3.310791c-4.4554329-2.9317627 1.8798482-7.1397953 1.8798482-7.1397953.9979027.1469269 3.3649934.9746723 8.9112447 3.8290043z" fill="#7979f7"/><g opacity=".3"><path d="m5.6782322 37.9806786c-.3583984 0-.6748047-.2568359-.7382813-.6220703-.0703125-.4082031.203125-.796875.6113281-.8671875.8378906-.1445313 1.8828125-.5546875 3.0234375-1.1855469.3652344-.2021484.8203125-.0683594 1.0195313.2929688.2001953.3623047.0693359.8193359-.2929688 1.0195313-1.3037109.7216797-2.4794922 1.1757813-3.4941406 1.3515625-.0429687.0068358-.0859375.0107421-.1289062.0107421z" fill="#fff"/></g><path d="m41.3632927 31.3291912c-.1103516.6500244-.25 1.2900372-.4101563 1.9300518-1.3598633-.2800293-2.9399414-.6999512-4.7700195-1.3300762-.2998047-.0999756-.6098633-.2099609-.9301758-.3199463-.2397461-.0899658-.5-.1800537-.7597656-.2800293-.6801758-.25-1.3999023-.5299072-2.1499023-.8399658-.090332-.0400391-.1801758-.0800781-.2700195-.1199951-.380373-.1600342-.7700214-.3199463-1.1704121-.5-.4897461-.210083-.9897461-.4300537-1.5-.6700439 0 0-.5097656-.25-1.4599609-.5799561-.0898438-.0300293-.1796875-.0599365-.2695313-.0899658-.2099609-.0700684-.4404297-.1500244-.6904297-.2199707-.0996094-.0300293-.2099609-.0600586-.3198242-.0900879-1.0498047-.3000488-2.3798828-.6099854-3.9599609-.8299561-.1499023-.0200195-.3100586-.0400391-.4702148-.0600586-.1796875-.0198975-.3696289-.039917-.5498047-.0599365-.1899414-.0200195-.3798828-.0400391-.5800781-.0600586-.5898438-.0600586-1.2001953-.0999756-1.8398438-.1199951-.0600586-.0100098-.1201172-.0100098-.1899414-.0100098l.6699219-2.1099854c5.2099609.4799805 8.2397461 1.9899902 8.2397461 1.9899902 6.1401385 2.8200685 10.4501971 3.9699708 13.3803729 4.3699952z" fill="#f05543"/><g opacity=".3"><g><path d="m20.0053806 16.1173992c-.2050781 0-.4091797-.0830078-.5566406-.2480469-.2773438-.3066406-.2529297-.78125.0546875-1.0585938.1826172-.1660156.3720703-.3232422.5664063-.4746094.3271484-.2558594.7998047-.1943359 1.0527344.1308594.2548828.3271484.1953125.7988281-.1308594 1.0527344-.1669922.1298828-.3271484.2636719-.484375.4042969-.1425782.1298829-.3222657.1933594-.5019532.1933594z" fill="#fff"/></g><g><path d="m16.6040134 21.8459148c-.3955078-.1240234-.6142578-.5458984-.4892578-.9404297l.5039063-1.5976563c.3105469-.9863281.765625-1.9150391 1.3515625-2.7597656.2353516-.3398438.7050781-.4257813 1.0439453-.1884766.3408203.2363281.4248047.7041016.1884766 1.0439453-.5.7197266-.8886719 1.5126953-1.1533203 2.3554688l-.5048828 1.5976563c-.1259404.4010544-.5559636.6140843-.9404298.4892578z" fill="#fff"/></g></g></g></svg>