<svg id="Layer_1" enable-background="new 0 0 512.352 512.352" height="512" viewBox="0 0 512.352 512.352" width="512" xmlns="http://www.w3.org/2000/svg"><g><g><g><g><path d="m233.398 273.243v-164.631c39.47-5.864 55.83-30.009 55.83-30.009-12.825-42.017-43.784-70.75-88.008-70.75h-14.542s-7.787 29.855-35.443 29.855-35.443-29.856-35.443-29.856h-14.542c-44.224 0-75.183 28.734-88.008 70.75 0 0 17.434 25.744 55.83 30.009v164.631h164.326z" fill="#c4e2ff"/></g><g><g><path d="m475.378 427.372 22.219-6.657c4.814-1.425 7.789-6.183 6.932-11.098-.982-5.63-2.23-13.737-3.825-23.617-7.937-49.189-15.905-124.335-53.883-188.654-9.742-16.499-26.876-30.174-40.194-30.174l-21.063 63.827c-5.301 16.063-1.412 31.876 7.441 50.354 4.442 9.272 70.156 139.972 70.156 139.972 1.836 4.888 7.185 7.537 12.217 6.047z" fill="#918291"/></g><g><path d="m504.529 409.616c-.976-5.593-2.435-13.682-4.342-23.533l-47.555 14.292c6.336 12.608 10.529 20.949 10.529 20.949 1.836 4.89 7.185 7.538 12.217 6.049l22.219-6.657c4.814-1.427 7.79-6.184 6.932-11.1z" fill="#f3f0f3"/></g><g><g><path d="m188.577 427.372-22.219-6.657c-4.814-1.425-7.789-6.183-6.932-11.098.982-5.63 2.23-13.737 3.825-23.617 7.937-49.189 15.905-124.335 53.883-188.654 9.742-16.499 26.876-30.174 40.194-30.174l21.063 63.827c5.301 16.063 1.412 31.876-7.441 50.354-4.442 9.272-70.156 139.972-70.156 139.972-1.835 4.888-7.184 7.537-12.217 6.047z" fill="#918291"/></g><g><path d="m159.426 409.616c.976-5.593 2.435-13.682 4.342-23.533l47.555 14.292c-6.336 12.608-10.529 20.949-10.529 20.949-1.836 4.89-7.185 7.538-12.217 6.049l-22.219-6.657c-4.814-1.427-7.789-6.184-6.932-11.1z" fill="#f3f0f3"/></g></g><g><g><g><g><g><path d="m331.547 234.359h97.424l-22.556-67.188h-74.868z" fill="#8ac9fe"/><path d="m406.415 167.171h-40l22.556 67.188h40z" fill="#60b7ff"/><path d="m331.547 234.359h97.424v67.188h-97.424z" fill="#f3f0f3" transform="matrix(-1 0 0 -1 760.518 535.906)"/><path d="m388.971 234.359h40v67.188h-40z" fill="#e2dee2"/><path d="m331.547 301.547h97.424v67.188h-97.424z" fill="#8ac9fe" transform="matrix(-1 0 0 -1 760.518 670.282)"/><path d="m388.971 301.547h40v67.188h-40z" fill="#60b7ff"/><path d="m331.547 368.735h97.424v67.188h-97.424z" fill="#f3f0f3" transform="matrix(-1 0 0 -1 760.518 804.658)"/><path d="m388.971 368.735h40v67.188h-40z" fill="#e2dee2"/><path d="m332.234 234.359h-97.424l22.556-67.188h74.868z" fill="#8ac9fe"/><path d="m381.018 167.171h-96.514v-28.7c0-6.569 5.325-11.893 11.893-11.893h72.728c6.569 0 11.893 5.325 11.893 11.893z" fill="#f3f0f3"/><path d="m234.81 234.359h97.424v67.188h-97.424z" fill="#f3f0f3"/><path d="m234.81 301.547h97.424v67.188h-97.424z" fill="#8ac9fe"/><path d="m234.81 368.735h97.424v67.188h-97.424z" fill="#f3f0f3"/><path d="m315.604 126.578h34.313v309.345h-34.313z" fill="#918291"/></g></g></g></g></g></g></g><g><g><g><path d="m17.685 504.852h219.29c5.528 0 10.009-4.44 10.009-9.918v-220.398c0-6.147-5.002-11.131-11.172-11.131h-216.964c-6.17 0-11.172 4.983-11.172 11.131v220.398c0 5.478 4.481 9.918 10.009 9.918z" fill="#ffe177"/></g></g></g><path d="m235.812 263.405h-40c6.17 0 11.172 4.983 11.172 11.131v220.398c0 5.478-4.481 9.918-10.009 9.918h40c5.528 0 10.009-4.44 10.009-9.918v-220.398c0-6.147-5.002-11.131-11.172-11.131z" fill="#ffd15b"/><path d="m92.636 263.405v85.677l34.694-20.275 34.694 20.275v-85.677z" fill="#d6694b"/></g><path d="m511.918 408.327c-11.012-62.037-13.869-118.21-44.414-187.444-4.028-8.821-17.673-2.592-13.645 6.229 22.487 49.256 30.401 101.139 36.761 142.828.562 3.688 1.105 7.237 1.643 10.692l-35.758 10.747c-5.779-11.502-12.855-25.589-20.034-39.89v-117.13c0-.795-.144-1.657-.39-2.387l-17.981-53.556c8.019 4.63 16.562 13.09 22.262 22.743 5.233 8.861 17.645.382 12.916-7.627-9.967-16.858-29.209-33.944-46.782-33.854-.047-.019-17.916 0-17.979-.007v-21.2c0-10.693-8.7-19.393-19.394-19.393-24.243 0-48.485 0-72.728 0-10.693 0-19.393 8.7-19.393 19.393v21.2c-.038 0-19.641 0-19.676 0-5.422 0-11.007 1.637-16.431 4.394v-49.167c37.67-7.766 53.835-31.048 54.54-32.088 1.271-1.877 1.626-4.229.964-6.396-17.05-54.947-57.74-79.709-109.724-76.06-3.413-.001-6.395 2.304-7.257 5.606-9.248 31.898-46.823 32.605-56.372 0-.861-3.302-3.844-5.607-7.257-5.607-51.971-3.659-92.692 21.138-109.72 76.06-.662 2.167-.308 4.518.963 6.395.747 1.103 17.794 25.697 54.54 32.292v140.805h-42.724c-10.296 0-18.672 8.358-18.672 18.631v220.398c0 9.604 7.854 17.418 17.51 17.418h30.508c9.925-.334 9.912-14.68 0-15h-30.508c-1.384 0-2.51-1.084-2.51-2.418v-220.398c0-2.002 1.647-3.631 3.672-3.631h66.288v78.177c0 5.281 6.101 9.5 11.284 6.476l30.91-18.064 30.91 18.064c4.916 2.87 11.284-.783 11.284-6.476v-78.177h66.288c2.024 0 3.672 1.629 3.672 3.631v27.011c-.014 57.384.01 136.086 0 193.387 0 1.333-1.126 2.418-2.51 2.418h-158.904c-9.826.277-10.009 14.646 0 15h158.904c9.655 0 17.51-7.813 17.51-17.418v-51.511h174.487c4.143 0 7.5-3.358 7.5-7.5v-51.008c6.609 13.157 13.22 26.314 19.834 39.47 2.715 6.696 9.27 10.894 16.258 10.893 8.911 0 18.76-4.854 27.164-7.372 8.46-2.505 13.701-10.922 12.191-19.579zm-90.446-114.28h-64.055v-52.188h64.055zm-64.055 15h64.055v52.188h-64.055zm0-82.188v-52.188h43.604l17.521 52.188zm16.101-88.388v21.2h-16.101v-25.593h11.707c2.423 0 4.394 1.971 4.394 4.393zm-31.101-4.393v25.593h-19.312v-25.593zm-96.779 44.461-17.939 53.433c-.245.73-.39 1.592-.39 2.387v21.546h-28.706c10.08-26.717 23.48-63.595 47.035-77.366zm-3.328 63.32h65.795v52.188h-53.62v-19.511c0-7.991-5.078-14.803-12.175-17.444zm12.174 67.188h53.62v52.188h-53.62zm53.621-82.188h-62.865l17.521-52.188h45.345v52.188zm-16.101-88.388c0-2.422 1.971-4.393 4.393-4.393h11.708v25.593h-16.101zm-215.432-59.559c-.343-9.929-14.658-9.926-15 0v20.896c-22.298-4.752-35.179-17.167-39.971-22.706 14.172-43.088 47.804-64.623 88.827-61.75 15.747 39.734 65.916 39.656 81.612 0 41.011-2.872 74.636 18.651 88.816 61.714-4.718 5.324-17.26 17.031-39.96 22.46v-20.614c0-4.142-3.357-7.5-7.5-7.5s-7.5 3.358-7.5 7.5v95.855c-20.003 18.763-33.359 53.362-43.135 81.138-35.397 0-70.793 0-106.19 0v-176.993zm77.952 257.1-23.41-13.681c-2.523-1.366-5.046-1.366-7.568 0l-23.41 13.681v-65.107h54.389v65.107zm99.96 40.223h53.62v52.188h-53.62zm68.621-201.564h19.312v253.752h-19.312zm98.367 253.752h-64.055v-52.188h64.055zm73.973-14.893-22.196 6.65c-1.268.376-2.612-.282-3.066-1.492-.094-.25-.201-.496-.32-.734 0 0-2.488-4.947-6.519-12.968l31.299-9.406c.046.286.092.579.137.86.911 5.718 1.697 10.657 2.361 14.465.204 1.17-.499 2.271-1.696 2.625z"/></g></svg>