<svg clip-rule="evenodd" fill-rule="evenodd" height="512" image-rendering="optimizeQuality" shape-rendering="geometricPrecision" text-rendering="geometricPrecision" viewBox="0 0 6.82666 6.82666" width="512" xmlns="http://www.w3.org/2000/svg" xmlns:xlink="http://www.w3.org/1999/xlink"><linearGradient id="id0" gradientUnits="userSpaceOnUse" x1="1.694" x2="5.133" y1="5.133" y2="1.694"><stop offset="0" stop-color="#d33230"/><stop offset="1" stop-color="#fd8f04"/></linearGradient><g id="Layer_x0020_1"><g id="_253055440"><g><path id="_253055152" d="m2.2403 5.4793h2.34606v.287484h-2.34606zm0 .487543c0 .202528.16463.367157.36698.367157l1.61192-.00000394c.20235 0 .367157-.16463.367157-.367157v-.0595787l-2.34606.00000394v.0595787zm0-2.11444h2.34606v1.48695h-2.34606zm.612339.743472c0 .309165.251528.560693.560693.560693.309161 0 .560689-.251528.560689-.560693s-.251528-.560693-.560689-.560693c-.309165 0-.560693.251528-.560693.560693zm.560689.420563c.231783 0 .420559-.188602.420559-.420563 0-.231787-.188776-.420563-.420559-.420563-.231961 0-.420563.188776-.420563.420563 0 .231783.188602.420563.420563.420563zm-1.17303-1.30434h2.34606v-.287307h-2.34606zm0-.854346v.426732h2.34606v-.426732zm2.31803-.14013h-2.29l.278142-.814512.510811.00000394h.712276.510811l.277965.814508zm-1.62373-.560161c0 .0387795.031374.0701535.0701535.0701535h.817327c.0387795 0 .0701535-.0311969.0701535-.0701535 0-.0387795-.031374-.0699764-.0701535-.0699764h-.817327c-.0387795.00017717-.0701535.031374-.0701535.0699764zm1.08789.305638c0-.0387795-.031374-.0701535-.0701535-.0701535l-1.07819.00000394c-.0387795 0-.0701535.031374-.0701535.0701535s.031374.0701535.0701535.0701535l1.07819-.00000394c.0387795 0 .0701535-.031374.0701535-.0701535zm-.722146-1.08789h-.173091v.387776h.572146v-.718091h-.572146v.190189h.173091c.0387795 0 .0701535.0311969.0701535.0701535-.00017717.0385984-.031374.0699724-.0701535.0699724zm-.313217.387776v-.457752-.330492c0-.0387795.031374-.0701535.0701535-.0701535h.712272c.0387795 0 .0701535.031374.0701535.0701535v.788244h.420563v-.971559c0-.16463-.133961-.298764-.298764-.298764h-1.09635c-.16463 0-.298764.133961-.298764.298764v.971559h.42074z" fill="url(#id0)"/></g></g></g></svg>