<svg id="Capa_1" enable-background="new 0 0 512 512" height="512" viewBox="0 0 512 512" width="512" xmlns="http://www.w3.org/2000/svg"><path d="m437.345 32.941c8.759 175.478 2.99 371.025.296 442.993-.597 15.949-13.695 28.567-29.655 28.567h-71.605c-14.888 0-27.469-11.02-29.419-25.779-7.832-59.276-28.465-207.688-50.95-305.779-22.485 98.091-43.118 246.503-50.95 305.779-1.95 14.759-14.531 25.779-29.419 25.779h-71.605c-15.96 0-29.058-12.618-29.655-28.567-2.694-71.967-8.463-267.515.296-442.993.462-9.266 8.097-16.543 17.374-16.543h327.919c9.276 0 16.911 7.277 17.373 16.543z" fill="#8eafe2"/><path d="m92.053 16.398c-9.277 0-16.911 7.277-17.374 16.543-8.759 175.478-2.99 371.025-.296 442.993.597 15.949 13.695 28.567 29.655 28.567h71.605c14.888 0 27.469-11.02 29.419-25.779 2.115-16.01 5.166-38.532 8.934-64.8-40.215-82.589-38.679-318.208-32.787-397.523h-89.156z" fill="#6a96d7"/><path d="m281.023 61.403h-50.021v67.599c0 5.029 4.077 9.105 9.105 9.105h8.235c18.049 0 32.681-14.632 32.681-32.681z" fill="#6a96d7"/><path d="m74.679 32.941c-.471 9.436-.897 18.933-1.287 28.463h365.24c-.39-9.53-.816-19.027-1.287-28.463-.462-9.266-8.097-16.543-17.374-16.543h-327.918c-9.277 0-16.911 7.277-17.374 16.543z" fill="#e1b89a"/><path d="m193.779 16.398h-101.726c-9.277 0-16.911 7.277-17.374 16.543-.471 9.436-.897 18.933-1.287 28.463h124.4c-5.502-10.441-7.321-28.814-4.013-45.006z" fill="#d2996f"/><path d="m282.653 7.5h-53.281c-5.919 0-10.717 4.798-10.717 10.717v41.368c0 5.919 4.798 10.717 10.717 10.717h53.281c5.919 0 10.717-4.798 10.717-10.717v-41.368c-.001-5.919-4.799-10.717-10.717-10.717z" fill="#f7ef87"/><path d="m157.246 10.71h-18.702c-5.016 0-9.082 4.066-9.082 9.082v38.218c0 5.016 4.066 9.082 9.082 9.082h18.702c5.016 0 9.082-4.066 9.082-9.082v-38.218c0-5.016-4.066-9.082-9.082-9.082z" fill="#6a96d7"/><path d="m354.778 10.71h18.703c5.016 0 9.082 4.066 9.082 9.082v38.218c0 5.016-4.066 9.082-9.082 9.082h-18.703c-5.016 0-9.082-4.066-9.082-9.082v-38.218c0-5.016 4.066-9.082 9.082-9.082z" fill="#6a96d7"/><path d="m91.977 493.438c-6.054-3.933-9.83-10.581-10.1-17.785-2.127-56.83-5.851-181.551-3.75-314.393 10.918-1.82 21.14-5.773 29.311-11.414 13.139-9.072 21.42-22.63 23.948-39.21.624-4.095-2.189-7.92-6.284-8.545-4.095-.621-7.92 2.19-8.545 6.284-1.492 9.79-8.215 31.798-38.164 37.64.491-25.63 1.209-51.474 2.204-77.112h45.474c3.042 3.478 7.499 5.688 12.471 5.688h18.703c4.973 0 9.429-2.211 12.471-5.688h44.03c2.198 3.671 5.642 6.504 9.754 7.91v52.189c0 9.156 7.449 16.605 16.605 16.605h8.235c22.156 0 40.181-18.025 40.181-40.181v-28.613c4.112-1.405 7.556-4.238 9.754-7.91h44.03c3.042 3.478 7.499 5.688 12.471 5.688h18.703c4.973 0 9.429-2.211 12.471-5.688h45.474c.196 5.058.384 10.153.561 15.283.14 4.052 3.468 7.242 7.491 7.242.087 0 .175-.001.263-.004 4.14-.143 7.38-3.614 7.237-7.754-.604-17.536-1.325-34.729-2.142-51.103-.663-13.272-11.584-23.668-24.865-23.668h-34.019c-3.042-3.478-7.499-5.689-12.471-5.689h-18.703c-4.973 0-9.43 2.211-12.471 5.689h-44.03c-3.183-5.319-8.985-8.899-15.622-8.899h-53.281c-6.638 0-12.44 3.58-15.624 8.898h-44.03c-3.042-3.478-7.499-5.689-12.471-5.689h-18.703c-4.973 0-9.43 2.211-12.471 5.689h-34.02c-13.28 0-24.202 10.397-24.864 23.668-8.72 174.696-3.115 368.452-.3 443.647.452 12.075 6.776 23.217 16.919 29.804 3.48 2.261 8.123 1.263 10.374-2.205 2.256-3.473 1.269-8.118-2.205-10.374zm298.086-469.54h29.908c5.278 0 9.62 4.136 9.883 9.417.336 6.732.655 13.61.957 20.588h-40.748zm-36.867-4.106c0-.873.71-1.583 1.582-1.583h18.703c.872 0 1.582.71 1.582 1.583v38.218c0 .872-.71 1.582-1.582 1.582h-18.703c-.872 0-1.582-.709-1.582-1.582zm-52.327 4.106h37.327v30.005h-37.327zm-27.346 81.529c0 13.885-11.296 25.181-25.181 25.181h-8.235c-.885 0-1.605-.72-1.605-1.605v-51.2h35.021zm-47.303-87.859c.301-1.464 1.599-2.568 3.151-2.568h53.281c1.773 0 3.216 1.443 3.216 3.217v41.368c0 1.774-1.443 3.217-3.216 3.217h-53.281c-1.777 0-3.217-1.446-3.217-3.217.001 0-.023 14.919.066-42.017zm-52.391 6.33h37.326v30.005h-37.326zm-36.868-4.106c0-.873.71-1.583 1.583-1.583h18.703c.872 0 1.583.71 1.583 1.583v38.218c0 .872-.71 1.582-1.583 1.582h-18.703c-.873 0-1.583-.709-1.583-1.582zm-54.791 13.523c.264-5.28 4.604-9.417 9.883-9.417h29.908v30.005h-40.747c.298-6.885.615-13.753.956-20.588zm365.877 86.341c-.104-4.14-3.525-7.392-7.686-7.309-4.141.104-7.414 3.545-7.309 7.686.218 8.671.408 17.337.572 25.981-29.944-5.844-36.665-27.849-38.158-37.639-.625-4.095-4.455-6.907-8.545-6.284-4.095.625-6.908 4.45-6.284 8.545 2.528 16.58 10.809 30.139 23.948 39.21 8.169 5.639 18.388 9.592 29.304 11.412 2.123 135.335-1.807 262.681-3.743 314.394-.447 11.971-10.182 21.348-22.16 21.348h-71.605c-11.082 0-20.533-8.281-21.983-19.262-7.846-59.379-28.528-208.108-51.075-306.472-.781-3.408-3.814-5.824-7.31-5.824-3.497 0-6.529 2.416-7.311 5.824-22.547 98.364-43.229 247.093-51.075 306.472-1.451 10.981-10.902 19.262-21.984 19.262h-52.012c-4.142 0-7.5 3.358-7.5 7.5s3.358 7.5 7.5 7.5h52.012c18.578 0 34.421-13.885 36.854-32.297 6.958-52.665 24.043-175.833 43.515-271.201 19.471 95.368 36.556 218.536 43.515 271.201 2.433 18.412 18.277 32.297 36.854 32.297h71.605c20.081 0 36.398-15.719 37.15-35.786 4.175-111.511 5.775-242.779 2.911-356.558zm-46.035 352.351c4.142 0 7.5-3.358 7.5-7.5s-3.358-7.5-7.5-7.5h-12.695c-4.142 0-7.5 3.358-7.5 7.5s3.358 7.5 7.5 7.5zm-61.412-15c-4.142 0-7.5 3.358-7.5 7.5s3.358 7.5 7.5 7.5h12.695c4.142 0 7.5-3.358 7.5-7.5s-3.358-7.5-7.5-7.5zm-181.87 0c-4.142 0-7.5 3.358-7.5 7.5s3.358 7.5 7.5 7.5h12.695c4.142 0 7.5-3.358 7.5-7.5s-3.358-7.5-7.5-7.5zm-28.522 7.5c0-4.142-3.358-7.5-7.5-7.5h-12.695c-4.142 0-7.5 3.358-7.5 7.5s3.358 7.5 7.5 7.5h12.695c4.142 0 7.5-3.358 7.5-7.5z"/></svg>