<svg id="Capa_1" enable-background="new 0 0 510.438 510.438" height="512" viewBox="0 0 510.438 510.438" width="512" xmlns="http://www.w3.org/2000/svg"><g><g><g><path d="m397.975 155.021-14.355-97.015c-.541-3.656-1.695-7.196-3.415-10.468l-3.556-6.768c-2.445-4.653-2.763-10.135-.873-15.04l7.026-18.23h-127.578-127.578l7.026 18.23c1.89 4.905 1.572 10.387-.873 15.04l-3.556 6.768c-1.719 3.272-2.874 6.811-3.415 10.468l-14.356 97.015c-9.833 66.448-9.986 133.971-.456 200.463l15.629 109.039c0 3.831 1.061 7.586 3.066 10.85 4.228 6.882 4.073 15.593-.396 22.321l-2.67 4.019c0 .677.549 1.226 1.226 1.226h87.607c.619 0 1.14-.461 1.216-1.075l-1.38-2.587c-4.113-7.708-3.426-17.093 1.763-24.121 2.312-3.13 3.778-6.804 4.257-10.665l32.888-264.869 32.888 264.869c.479 3.862 1.946 7.535 4.258 10.665 5.189 7.028 5.876 16.413 1.763 24.121l-1.38 2.587c.076.614.598 1.075 1.216 1.075h87.607c.677 0 1.226-.549 1.226-1.226l-2.67-4.019c-4.469-6.728-4.624-15.439-.396-22.321 2.005-3.264 3.066-7.02 3.066-10.85l15.629-109.039c9.532-66.492 9.379-134.015-.454-200.463z" fill="#7a6d79"/></g></g><g><g><path d="m397.975 155.021-14.355-97.015c-.541-3.656-1.695-7.196-3.415-10.468l-3.556-6.768c-2.445-4.653-2.763-10.135-.873-15.04l7.026-18.23h-30l-7.026 18.23c-1.89 4.905-1.572 10.387.873 15.04l3.556 6.768c1.719 3.272 2.874 6.811 3.415 10.468l14.356 97.015c9.833 66.448 9.986 133.971.456 200.463l-15.629 109.039c0 3.831-1.061 7.586-3.066 10.85-4.228 6.882-4.073 15.593.396 22.321l2.67 4.019c0 .677-.549 1.226-1.226 1.226h30c.677 0 1.226-.549 1.226-1.226l-2.67-4.019c-4.469-6.728-4.624-15.439-.396-22.321 2.005-3.264 3.066-7.02 3.066-10.85l15.629-109.039c9.529-66.492 9.376-134.015-.457-200.463z" fill="#685e68"/></g></g><g><g><path d="m130.125 47.42c-1.719 3.272-2.874 6.811-3.415 10.468l-.031.213h256.854l-.031-.213c-.541-3.656-1.696-7.195-3.415-10.468l-3.556-6.768c-2.445-4.653-2.763-10.135-.873-15.04l7.026-18.23h-255.156l7.026 18.23c1.89 4.905 1.572 10.387-.873 15.04z" fill="#b5adb6"/></g></g><g><g><path d="m382.802 464.522.044-.303h-94.767l.034.271c.479 3.862 1.946 7.535 4.258 10.665 5.189 7.028 5.876 16.413 1.763 24.121l-1.38 2.587c.076.614.598 1.075 1.216 1.075h87.607c.677 0 1.226-.549 1.226-1.226l-2.67-4.019c-4.469-6.728-4.624-15.439-.396-22.321 2.004-3.263 3.065-7.019 3.065-10.85z" fill="#b5adb6"/></g></g><g><g><path d="m382.802 464.522.044-.303h-30l-.044.303c0 3.831-1.061 7.586-3.066 10.85-4.228 6.882-4.073 15.593.396 22.321l2.67 4.019c0 .677-.549 1.226-1.226 1.226h30c.677 0 1.226-.549 1.226-1.226l-2.67-4.019c-4.469-6.728-4.624-15.439-.396-22.321 2.005-3.263 3.066-7.019 3.066-10.85z" fill="#a79ba7"/></g></g><g><g><path d="m127.602 464.219.044.303c0 3.831 1.061 7.586 3.066 10.85 4.228 6.882 4.073 15.593-.396 22.321l-2.67 4.019c0 .677.549 1.226 1.226 1.226h87.607c.619 0 1.14-.461 1.216-1.075l-1.38-2.587c-4.113-7.708-3.426-17.093 1.763-24.121 2.312-3.13 3.778-6.804 4.257-10.665l.034-.271z" fill="#b5adb6"/></g></g><g><path d="m405.394 153.923-14.355-97.012c-.665-4.501-2.076-8.828-4.194-12.86l-3.557-6.769c-1.438-2.739-1.626-5.966-.514-8.854l7.025-18.23c.889-2.306.584-4.903-.815-6.941-1.397-2.039-3.711-3.257-6.182-3.257h-255.156c-2.472 0-4.785 1.218-6.184 3.256s-1.704 4.635-.815 6.941l7.025 18.23c1.113 2.888.926 6.115-.514 8.855l-3.556 6.769c-2.117 4.03-3.528 8.356-4.194 12.858l-14.355 97.014c-9.945 67.203-10.1 135.376-.461 202.625l3.145 21.939c.536 3.74 3.744 6.438 7.415 6.437.354 0 .713-.025 1.073-.077 4.101-.588 6.948-4.388 6.36-8.488l-3.145-21.939c-9.433-65.814-9.282-132.532.451-198.301l13.408-90.612h102.864v51.824c0 4.142 3.358 7.5 7.5 7.5s7.5-3.358 7.5-7.5v-51.825h6.659v72.718c0 4.142 3.357 7.5 7.5 7.5s7.5-3.358 7.5-7.5v-72.718h104.324l13.409 90.612c7.433 50.23 9.281 101.374 5.493 152.012-.309 4.131 2.789 7.729 6.92 8.039 4.147.311 7.73-2.79 8.039-6.919 3.871-51.743 1.982-104.002-5.613-155.327zm-35.384-109.664 3.283 6.248h-13.658v-35.507h12.24l-3.097 8.034c-2.668 6.923-2.218 14.659 1.232 21.225zm-38.906-29.259h13.529v35.506h-13.529zm-15 35.506h-13.529v-35.506h13.529zm-120.625-35.506h13.529v35.506h-13.529zm-15 35.506h-13.529v-35.506h13.529zm-28.529-35.506v35.506h-14.794l3.282-6.248c3.451-6.567 3.899-14.303 1.232-21.225l-3.096-8.033zm113.374 8.229c-4.143 0-7.5 3.358-7.5 7.5v19.777h-6.659v-19.777c0-4.142-3.358-7.5-7.5-7.5s-7.5 3.358-7.5 7.5v19.777h-12.156v-35.506h63.566v35.506h-14.751v-19.777c0-4.142-3.357-7.5-7.5-7.5z"/><path d="m401.585 330.568c-4.111-.476-7.841 2.458-8.324 6.573-.679 5.767-1.436 11.58-2.254 17.279l-14.663 102.299h-81.639l-32.038-258.023c-.467-3.756-3.658-6.576-7.443-6.576s-6.977 2.82-7.443 6.576l-32.038 258.023h-81.639l-7.262-50.664c-.588-4.101-4.395-6.944-8.488-6.36-4.101.588-6.948 4.388-6.36 8.488l8.158 56.915c.102 5.018 1.539 9.916 4.17 14.2 2.688 4.376 2.589 9.967-.253 14.245l-2.67 4.019c-.817 1.229-1.253 2.673-1.253 4.15 0 4.811 3.914 8.726 8.726 8.726h87.607c4.395 0 8.118-3.289 8.659-7.651.19-1.534-.098-3.089-.825-4.453l-1.381-2.589c-2.735-5.127-2.273-11.46 1.18-16.135 3.07-4.158 5.03-9.067 5.667-14.196l25.445-204.927 25.446 204.927c.637 5.129 2.596 10.038 5.667 14.197 3.452 4.674 3.915 11.007 1.178 16.136l-1.38 2.587c-.727 1.364-1.015 2.919-.825 4.453.542 4.362 4.265 7.651 8.659 7.651h87.608c4.811 0 8.725-3.914 8.725-8.726 0-1.477-.435-2.92-1.253-4.15l-2.67-4.019c-2.842-4.279-2.94-9.87-.254-14.245 2.632-4.283 4.068-9.181 4.171-14.201l15.559-108.549c.835-5.823 1.61-11.763 2.303-17.656.484-4.113-2.459-7.84-6.573-8.324zm-261.86 164.87c2.64-7.68 1.876-16.286-2.314-23.456-.049-.087-.091-.177-.143-.263h74.058c-.029.043-.054.09-.083.133-4.654 6.969-6.145 15.565-4.3 23.586zm163.78 0c1.727-7.505.532-15.511-3.44-22.218-.072-.123-.151-.243-.225-.365-.2-.326-.4-.652-.614-.972-.036-.054-.067-.11-.104-.164h74.057c-.083.138-.154.28-.233.42-.179.311-.356.623-.522.939-.046.089-.089.179-.134.268-3.523 6.881-4.04 14.893-1.567 22.093h-67.218z"/></g></g></svg>