<svg id="Layer_1" enable-background="new 0 0 512 512" height="512" viewBox="0 0 512 512" width="512" xmlns="http://www.w3.org/2000/svg"><g id="XMLID_1_"><g id="XMLID_4395_"><path id="XMLID_2834_" d="m507 226-91-161-90-30-20-30h-70l-20 30-90 30-91 161 91 60v221h290v-221z" fill="#d84861"/><path id="XMLID_3197_" d="m326 35h-140l70 110z" fill="#c22945"/><path id="XMLID_3118_" d="m301 249 35 20 35-20v-60h-70z" fill="#e17084"/><g fill="#ffc96f"><path id="XMLID_2837_" d="m172.9 450.8c-12.5-19.7-30.8-50.5-25.6-53.4 4.9-2.7 24 6.3 37.9 13.9 10.6-45.7 8.6-85.3 8.6-85.3-13.7 0-26.3 1.3-37.8 3.7 3.3 18.5 6.9 42.8 3 44.4-4.1 1.6-15.3-21.6-22.9-38.8-3.5 1.2-6.8 2.6-10.1 4.1v145.3c7.3 3.8 14.7 8 20.7 11.6 11.1-13.9 19.6-29.5 26.2-45.5z"/><path id="XMLID_3114_" d="m425.7 144.2c9.3-3.8 18.5-8.6 26.8-14.6l-36.5-64.6-8.5-2.8c-6.2 2.3-12.3 5.1-18.1 8.5 12.5 10.9 29 27.3 24.1 33.9-4.8 6.5-30.1-5.7-47.8-15.4-7.7 8.2-14 18.2-18.4 30.3 11.7 5.2 27.5 12.7 26.4 15.5-1.1 2.7-17.6.2-30.2-2-1.6 7.8-2.5 16.2-2.5 25.5 0 0 26.9 1.3 57.9-5.8-5.2-9.4-11.3-22.3-9.4-25.6 1.9-3.7 22.8 8.7 36.2 17.1z"/><path id="XMLID_3113_" d="m270 292.8s29.9 30.9 11 41.5-25-31.1-25-31.1-6.1 41.7-25 31.1 11-41.5 11-41.5-42.9.9-35-18.8 41.4 3.5 41.4 3.5-20.9-41.5 7.6-41.5 7.7 41.5 7.7 41.5 33.4-23.2 41.4-3.5c7.9 19.7-35.1 18.8-35.1 18.8z"/><path id="XMLID_3112_" d="m373.1 507h42.9v-108.3c-6.3-14.4-16.5-24.9-32.9-20.3-41.8 11.7 8.6 79.3 8.6 79.3s-67.5-50.4-79.3-8.6c-11.7 41.8 74.2 43.2 74.2 43.2s-6.2 6-13.5 14.7z"/><path id="XMLID_2838_" d="m114.5 148.7s-31.2 62.3 11.5 62.3 11.5-62.3 11.5-62.3 50.1 34.8 62 5.3-52.5-28.1-52.5-28.1 44.9-46.3 16.5-62.3c-28.4-15.9-37.5 46.6-37.5 46.6s-2.4-16.3-8.5-30.2l-20.6 36.5c4.5 5.7 8.1 9.4 8.1 9.4s-5.8-.1-13.7.5l-22.3 39.4c19.1 1.3 45.5-17.1 45.5-17.1z"/></g><path id="XMLID_2607_" d="m206 5-20 30-30 51h50v21.8l50 37.2z" fill="#e17084"/><path id="XMLID_2606_" d="m306 5 20 30 30 51h-50v21.8l-50 37.2z" fill="#e17084"/></g><g id="XMLID_3738_"><g id="XMLID_2241_"><path id="XMLID_3389_" d="m416 512h-320c-2.8 0-5-2.2-5-5v-218.3l-88.8-58.5c-2.2-1.4-2.9-4.3-1.6-6.6l91-161c.6-1.1 1.6-1.9 2.8-2.3l88.4-29.5 19-28.6c.9-1.4 2.5-2.2 4.2-2.2h100c1.7 0 3.2.8 4.2 2.2l19 28.6 88.4 29.5c1.2.4 2.2 1.2 2.8 2.3l91 161c1.3 2.3.6 5.2-1.6 6.6l-71 46.8-5.5-8.3 67.1-44.2-87.8-155.4-88.2-29.4c-1.1-.4-2-1-2.6-2l-18.5-27.7h-94.6l-18.5 27.8c-.6.9-1.5 1.6-2.6 2l-88.2 29.3-87.7 155.3 87.1 57.4c1.4.9 2.2 2.5 2.2 4.2v216h310v-358h10v363c0 2.8-2.2 5-5 5z" fill="#4d2419"/></g><g id="XMLID_1733_"><path id="XMLID_3388_" d="m91 144h10v142h-10z" fill="#4d2419"/></g><g id="XMLID_70_"><path id="XMLID_3385_" d="m256 150c-1.1 0-2.1-.3-3-1l-50-37.2c-1.3-.9-2-2.4-2-4v-16.8h-45c-1.8 0-3.5-1-4.3-2.5-.9-1.6-.9-3.5 0-5l30-51c0-.1.1-.2.1-.2l20-30c1-1.6 2.9-2.4 4.8-2.2 1.9.2 3.5 1.5 4.1 3.3l50 140c.7 2.1 0 4.4-1.7 5.7-.9.6-2 .9-3 .9zm-45-44.7 34.7 25.9-41.1-115.1-14.4 21.6-25.5 43.3h41.3c2.8 0 5 2.2 5 5z" fill="#4d2419"/></g><g id="XMLID_67_"><path id="XMLID_3382_" d="m256 150c-1 0-2.1-.3-3-1-1.8-1.3-2.5-3.6-1.7-5.7l50-140c.6-1.8 2.2-3 4.1-3.3 1.9-.2 3.7.6 4.8 2.2l20 30c.1.1.1.2.1.2l30 51c.9 1.5.9 3.5 0 5-.9 1.6-2.5 2.5-4.3 2.5h-45v16.8c0 1.6-.7 3.1-2 4l-50 37.3c-.9.7-2 1-3 1zm51.4-133.9-41.1 115.1 34.7-25.9v-19.3c0-2.8 2.2-5 5-5h41.3l-25.5-43.3z" fill="#4d2419"/></g><g id="XMLID_69_"><path id="XMLID_3381_" d="m251 303h10v204h-10z" fill="#4d2419"/></g><g id="XMLID_2079_"><path id="XMLID_3380_" d="m251 145h10v95h-10z" fill="#4d2419"/></g><g id="XMLID_12_"><path id="XMLID_3379_" d="m238 30h56v10h-56z" fill="#4d2419"/></g><g id="XMLID_68_"><path id="XMLID_3376_" d="m336 274c-.9 0-1.7-.2-2.5-.7l-35-20c-1.6-.9-2.5-2.5-2.5-4.3v-60c0-2.8 2.2-5 5-5h70c2.8 0 5 2.2 5 5v60c0 1.8-1 3.5-2.5 4.3l-35 20c-.8.5-1.6.7-2.5.7zm-30-27.9 30 17.1 30-17.1v-52.1h-60z" fill="#4d2419"/></g><g id="XMLID_79_"><g id="XMLID_92_"><path id="XMLID_3373_" d="m146.7 501.3c-.9 0-1.8-.2-2.6-.7-28.3-17-40.9-20.7-44.1-20.2-1.2 1.6-3.2 2.4-5.2 1.9-2.2-.5-3.8-2.6-3.8-4.9v-49.3c0-1.9 1-3.6 2.7-4.4 1.7-.9 3.6-.7 5.2.3 7.5 5.3 11.2 5.4 12.2 4.7.1-.1 6.3-6.5-19.5-55.2-.4-.7-.6-1.5-.6-2.3v-13c0-1.5.7-2.9 1.8-3.8 12.2-10.2 26.2-18.2 41.6-23.7 2.5-.9 5.2.3 6.3 2.7 7.2 16.2 12 25.2 15 30.2-.3-5.8-1.4-15.8-4.5-32.9-.5-2.7 1.3-5.2 3.9-5.8 12.1-2.5 25.1-3.8 38.8-3.8 2.7 0 4.9 2.1 5 4.7.1 1.6 1.9 40.8-8.7 86.7-.4 1.5-1.4 2.8-2.8 3.4s-3.1.6-4.4-.2c-16.1-8.8-26.2-12.6-30.9-13.6 1.4 4.6 6.6 16.6 25.2 46 .9 1.4 1 3.1.4 4.6-7.3 17.8-16.3 33.6-26.9 46.7-1.2 1.2-2.7 1.9-4.1 1.9zm-45.7-31c4.5.2 10.5 2 18.4 5.6 8.7 3.9 18.4 9.3 26 13.8 8.4-11.1 15.7-24 21.8-38.5-28-44.6-26.4-50.9-25.6-54 .5-1.9 1.6-3.4 3.2-4.3 2.2-1.2 7.9-4.4 36.9 10.8 6.9-32.8 7.3-61.6 7.2-72.7-9.5.2-18.6 1.1-27.2 2.6 1.7 9.6 2.8 17.7 3.4 24.1 1.1 12 .8 18.9-4.4 21-6.3 2.6-11.3-5.4-16.4-14.6-3.2-5.8-6.9-13.4-11.1-22.6-11.8 4.7-22.7 11-32.4 18.9v9.4c26.4 50.2 22.4 62.1 16 66.8-5 3.7-11 2.3-16 .1v33.6z" fill="#4d2419"/></g><g id="XMLID_94_"><path id="XMLID_3370_" d="m114 512h-18c-2.8 0-5-2.2-5-5v-25.2c0-2.5 1.8-4.6 4.3-4.9 2.5-.4 4.8 1.1 5.5 3.5.8 2.6 4 9.1 16.9 23.3 1.3 1.5 1.7 3.6.9 5.4-.8 1.7-2.6 2.9-4.6 2.9zm-13-10h2c-.7-.9-1.4-1.7-2-2.5z" fill="#4d2419"/></g></g><g id="XMLID_77_"><path id="XMLID_3367_" d="m346.8 163.5c-3.6 0-5.7-.1-6-.1-2.7-.1-4.7-2.3-4.7-5 0-9.3.9-18.3 2.6-26.5.6-2.6 3.1-4.4 5.8-3.9 5.9 1.1 10.6 1.8 14.2 2.3-3.3-1.7-7.7-3.7-13.3-6.2-2.4-1.1-3.6-3.8-2.7-6.3 4.3-12 10.8-22.8 19.4-32 1.6-1.7 4.1-2.1 6.1-1 26.2 14.4 38 17.2 41.2 16.6-.2-1.7-2.6-8.9-23.3-27-1.2-1.1-1.8-2.7-1.7-4.3s1.1-3 2.5-3.8c5.8-3.3 12.1-6.3 18.8-8.8 1.1-.4 2.3-.4 3.4-.1l8.5 2.8c1.2.4 2.2 1.2 2.8 2.3l36.5 64.6c1.3 2.2.6 5-1.4 6.5-8.1 5.9-17.5 11-27.9 15.2-1.5.6-3.2.5-4.5-.4-15.5-9.7-23.7-13.9-28-15.7 1.2 3.6 3.8 9.4 8.2 17.5.8 1.4.8 3 .2 4.4s-1.9 2.5-3.4 2.8c-23 5.4-43.5 6.1-53.3 6.1zm-.7-10.5h.3c8.2 0 25.5-.3 45-4.2-9.5-18.7-7.4-22.5-6.3-24.4.8-1.5 2.2-2.5 3.9-2.9 2.5-.6 7-1.7 37.2 17.1 7.2-3.1 13.8-6.6 19.8-10.5l-33.3-59-5-1.7c-3.3 1.3-6.5 2.7-9.6 4.2 18.8 17.4 24.8 28.5 19.5 35.8-4 5.4-13.2 8.1-50.7-12.1-5.4 6.4-9.8 13.5-13.1 21.4 5.7 2.6 10.4 4.9 14 6.9 5.5 3 13 7.1 10.6 13.1-2 4.8-8.4 4.6-15.9 3.9-4-.4-9-1.3-14.9-2.3-.9 4.8-1.3 9.7-1.5 14.7z" fill="#4d2419"/></g><g id="XMLID_93_"><path id="XMLID_2555_" d="m236.9 341c-2.4 0-5.3-.6-8.4-2.4-4.9-2.7-7.9-6.9-8.6-12.1-1.4-9.8 5.7-21.5 11.6-29.1-9.7-.8-22.8-3.4-28.1-11.1-2-2.8-3.7-7.6-1.1-14.2 2.1-5.2 5.9-8.7 10.9-10.2 7.9-2.4 17.6.7 25.3 4.3-2.6-8.7-4.2-19.6.4-27 2.3-3.7 7.1-8.2 17.1-8.2s14.8 4.4 17.1 8.2c4.6 7.5 3 18.4.4 27 7.7-3.6 17.5-6.7 25.3-4.3 5 1.5 8.8 5 10.9 10.2 2.7 6.6.9 11.3-1.1 14.2-5.3 7.7-18.4 10.3-28.1 11.1 5.9 7.7 13 19.3 11.6 29.1-.8 5.2-3.7 9.4-8.6 12.1-6.4 3.6-11.5 2.5-14.7.9-5.9-2.9-10-9.8-12.7-16.8-2.7 7-6.8 13.9-12.7 16.8-1.8.8-3.9 1.5-6.5 1.5zm19.1-42.8c2.5 0 4.6 1.8 4.9 4.3 1.5 9.9 6.2 25.1 12.2 28 1.1.5 2.6.9 5.4-.6 2.2-1.2 3.3-2.7 3.6-4.8 1.2-7.9-9.1-21.9-15.8-28.8-1.4-1.5-1.8-3.6-1-5.5s2.6-3.1 4.7-3c10.3.2 26.6-1.9 30.2-7.2.4-.5 1.2-1.8 0-4.7-1-2.4-2.3-3.7-4.5-4.4-7.5-2.2-22 5-29.4 10.1-1.9 1.3-4.4 1.2-6.1-.3s-2.2-4-1.2-6c4.2-8.4 9.4-24.3 5.4-30.9-.5-.8-2.1-3.4-8.6-3.4s-8 2.6-8.6 3.4c-4.2 6.8 1.8 23.7 5.4 30.9 1 2 .5 4.5-1.2 6s-4.3 1.6-6.1.3c-7.4-5.1-21.9-12.4-29.4-10.1-2.1.6-3.5 2-4.5 4.4-1.2 3-.3 4.2 0 4.7 3.7 5.3 19.9 7.4 30.2 7.2 2-.1 3.9 1.1 4.7 3s.4 4-1 5.5c-6.7 6.9-16.9 20.9-15.8 28.8.3 2.1 1.4 3.6 3.6 4.8 2.8 1.6 4.3 1.1 5.4.6 6.6-3.2 11.1-20.3 12.2-28 .7-2.5 2.8-4.3 5.3-4.3z" fill="#4d2419"/></g><g id="XMLID_74_"><path id="XMLID_2552_" d="m416 512h-42.9c-1.9 0-3.7-1.1-4.5-2.9s-.6-3.8.7-5.3c2.2-2.7 4.4-5.1 6.3-7.2-17.5-1.5-51-6.7-63.8-23.9-5.4-7.2-6.8-15.6-4.1-25 2.7-9.6 8.2-15.9 16.4-18.7 15.1-5.1 35.9 3.5 51.1 12-8.5-15.2-17.2-36-12-51.1 2.8-8.2 9.1-13.7 18.7-16.4 11.7-3.3 27.9-1.9 38.8 23.1.3.6.4 1.3.4 2v108.4c-.1 2.8-2.3 5-5.1 5zm-31.9-10h26.9v-102.3c-9.7-21.3-22.4-17.7-26.6-16.5-6.3 1.8-10.2 5-11.9 10-5.8 17.1 14.7 50.2 23.1 61.5 1.5 2 1.3 4.8-.5 6.5s-4.5 2-6.5.5c-11.3-8.4-44.4-29-61.5-23.1-4.9 1.7-8.2 5.6-10 11.9s-1 11.7 2.5 16.3c12 16.1 52.4 20.3 67 20.5 2 0 3.8 1.3 4.6 3.2.7 1.9.3 4-1.2 5.4 0 0-2.4 2.3-5.9 6.1z" fill="#4d2419"/></g><g id="XMLID_2080_"><path id="XMLID_2550_" d="m126 216c-11.1 0-19-3.7-23.5-11.1-7.5-12.1-3.1-31 1.5-44.1-11.6 6.1-28.5 12.8-41.5 8.9-6.8-2-11.9-6.8-14.7-13.9-1.9-4.7-2.3-9.2-1.2-13.3.1-.4.3-.8.5-1.2l3.2-5.7c.2-.3.4-.6.7-.9 9.3-10.1 30.2-12.9 43.2-13.7-5.8-7.1-13.5-17.8-17.5-28.6l9.4-3.4c5.9 16.1 22.3 33.1 22.5 33.3 1.4 1.5 1.8 3.7 1 5.5s-2.6 3.1-4.6 3.1h-.1c-9.9 0-37.1 1.2-46.2 10.2l-2.5 4.5c-.3 1.9 0 4 1 6.4 1.7 4.3 4.4 6.8 8.3 8 13.7 4.1 38-9.8 46.2-15.5 1.9-1.3 4.4-1.2 6.1.3s2.2 4 1.2 6c-4.7 9.5-15.4 36.7-7.9 48.7 2.6 4.2 7.5 6.3 15 6.3s12.3-2.1 15-6.3c7.5-12.1-3.2-39.3-7.9-48.7-1-2-.5-4.5 1.2-6s4.2-1.6 6.1-.3c8.2 5.7 32.6 19.6 46.2 15.5 3.9-1.2 6.6-3.7 8.3-8 2.1-5.1.8-7.8-.3-9.4-6.4-9.2-32.5-12.1-47.5-11.8-2 .1-3.9-1.1-4.7-3s-.4-4 1-5.5c.2-.2 20-20.8 23.9-38l9.8 2.2c-2.9 12.7-12.4 26.2-19.2 34.5 13.9.8 36.8 4 45 15.9 2.6 3.7 4.9 10 1.3 18.9-2.8 7-7.9 11.8-14.7 13.9-13 3.9-29.8-2.8-41.5-8.9 4.6 13.1 9 32 1.5 44.1-4.6 7.4-12.5 11.1-23.6 11.1z" fill="#4d2419"/></g><g id="XMLID_73_"><path id="XMLID_2549_" d="m126 115.2c-2.5 0-4.6-1.8-4.9-4.3-1.5-10.3-8-38.2-19.7-43.9l4.4-9c10 4.9 16.4 18.4 20.2 30.3 3.8-12 10.2-25.4 20.2-30.3 4.3-2.1 11.1-3.6 19.8 1.3 2.1 1.2 4 2.6 5.6 4.1l-7 7.1c-.9-.9-2.1-1.8-3.4-2.5-5.2-2.9-8.5-2-10.4-1-11.7 5.7-18.2 33.7-19.7 43.9-.5 2.5-2.6 4.3-5.1 4.3z" fill="#4d2419"/></g></g></g></svg>