<?xml version="1.0" encoding="UTF-8"?>
<svg xmlns="http://www.w3.org/2000/svg" id="icons" viewBox="0 0 60 60" width="512" height="512"><path d="M26.76,51.9l-.48,3.24a3.007,3.007,0,0,1-2.19,2.46A43.143,43.143,0,0,1,13,59c-6.03,0-9.16-1.47-10.77-2.63a3.013,3.013,0,0,1-1.2-2.88L5.3,25.02,9,25Z" fill="#e3cb5b"/><path d="M33.238,51.9l.48,3.24a3.007,3.007,0,0,0,2.19,2.46A43.143,43.143,0,0,0,47,59c6.03,0,9.16-1.47,10.77-2.63a3.013,3.013,0,0,0,1.2-2.88L54.7,25.02,51,25Z" fill="#e3cb5b"/><path d="M53.39,54.13A19.886,19.886,0,0,1,47,55c-3.89,0-9.07,0-13.76-3.1L30,30,26.76,51.9C22.07,55,16.89,55,13,55a19.886,19.886,0,0,1-6.39-.87,1.994,1.994,0,0,1-1.3-2.18L8.86,28.21A2,2,0,0,0,7.7,26.09L5.3,25.02,8,7H52l2.7,18.02-2.4,1.07a2,2,0,0,0-1.16,2.12l3.55,23.74A1.994,1.994,0,0,1,53.39,54.13Z" fill="#8486d0"/><path d="M52,3V7S49,9,30,9,8,7,8,7V3a2,2,0,0,1,2-2H50A2,2,0,0,1,52,3Z" fill="#9e9ceb"/><path d="M53,6.924V3a3,3,0,0,0-3-3H17a1,1,0,0,0,0,2H50a1,1,0,0,1,1,1V6.341c-1.131.385-4.565,1.225-13.505,1.538a11.734,11.734,0,0,0-1.788-2.586A1,1,0,0,0,34.289,6.7a8.588,8.588,0,0,1,.918,1.241C33.624,7.98,31.9,8,30,8s-3.625-.02-5.208-.055a8.387,8.387,0,0,1,.918-1.24,1,1,0,0,0-1.417-1.412,11.7,11.7,0,0,0-1.788,2.586C13.514,7.565,10.1,6.719,9,6.347V3a1,1,0,0,1,1-1h3a1,1,0,0,0,0-2H10A3,3,0,0,0,7,3V6.924L.046,53.345a3.974,3.974,0,0,0,1.6,3.835C4.227,59.051,8.047,60,13,60a44.2,44.2,0,0,0,11.356-1.434,4.013,4.013,0,0,0,2.909-3.276L30,36.824l2.735,18.467a4.013,4.013,0,0,0,2.909,3.275A44.2,44.2,0,0,0,47,60c4.953,0,8.773-.949,11.354-2.819a3.976,3.976,0,0,0,1.6-3.834ZM25.286,55a2.014,2.014,0,0,1-1.459,1.643A42.2,42.2,0,0,1,13,58c-5.634,0-8.646-1.326-10.183-2.44a1.987,1.987,0,0,1-.794-1.916L6.1,26.469,7.288,27a1,1,0,0,1,.583,1.061L4.32,51.8a2.986,2.986,0,0,0,1.968,3.273A21.134,21.134,0,0,0,13,56c3.467,0,8.056,0,12.463-2.2Zm5.7-25.142a1,1,0,0,0-1.978,0L25.834,51.3C21.5,53.992,16.8,54,13,54a19.186,19.186,0,0,1-6.064-.815A1,1,0,0,1,6.3,52.1L9.848,28.367a3,3,0,0,0-1.741-3.191l-1.7-.76L8.807,8.366c1.7.491,5.33,1.175,12.8,1.478A24.808,24.808,0,0,0,20,19a1,1,0,0,0,2,0,22.287,22.287,0,0,1,1.752-9.082C25.619,9.97,27.693,10,30,10s4.38-.03,6.247-.082A22.284,22.284,0,0,1,38,19a1,1,0,0,0,2,0,24.808,24.808,0,0,0-1.6-9.156c7.467-.3,11.1-.987,12.8-1.478L53.6,24.416l-1.71.763a3,3,0,0,0-1.738,3.179L53.7,52.1a1,1,0,0,1-.634,1.086A19.187,19.187,0,0,1,47,54c-3.8,0-8.5-.008-12.834-2.7ZM57.182,55.561C55.646,56.674,52.634,58,47,58a42.2,42.2,0,0,1-10.827-1.361A2.014,2.014,0,0,1,34.714,55l-.178-1.2C38.944,56,43.533,56,47,56a21.136,21.136,0,0,0,6.715-.925A2.986,2.986,0,0,0,55.68,51.8l-3.553-23.75a.994.994,0,0,1,.58-1.05l1.2-.534,4.072,27.177A1.989,1.989,0,0,1,57.182,55.561Z" fill="#373737"/><path d="M16.657,34.035a1,1,0,0,0-1.111.007l-2.341,1.587a1,1,0,1,0,1.123,1.656l.343-.232L13.43,43.521a1,1,0,0,0,.794,1.17,1.016,1.016,0,0,0,.189.018A1,1,0,0,0,15.4,43.9l1.7-8.838A1,1,0,0,0,16.657,34.035Z" fill="#373737"/><path d="M22.55,35.165a1,1,0,0,0-1.112.008L19.1,36.761a1,1,0,1,0,1.123,1.654l.342-.231L19.322,44.65a1,1,0,0,0,.794,1.171,1.027,1.027,0,0,0,.19.018,1,1,0,0,0,.981-.812l1.7-8.839A1,1,0,0,0,22.55,35.165Z" fill="#373737"/></svg>
