<svg height="512" viewBox="0 0 60 60" width="512" xmlns="http://www.w3.org/2000/svg"><g id="Page-1" fill="none" fill-rule="evenodd"><g id="025---Laundry" fill-rule="nonzero"><path id="Shape" d="m56.15 17.11-8.01 10.41-1.37-1.68c-.2680085-.3234693-.7096053-.4449581-1.1053567-.3040974s-.6612805.5140383-.6646433.9340974v11.53h-13.5c-1.9291303.0093024-3.4906976 1.5708697-3.5 3.5 0 1.9329966 1.5670034 3.5 3.5 3.5-1.9291303.0093024-3.4906976 1.5708697-3.5 3.5 0 1.9329966 1.5670034 3.5 3.5 3.5-.9281576-.0018579-1.8181442.3692701-2.47 1.03-.2838139.2792522-.5142589.6079751-.68.97h-13.35v-6.2c.01.13.01.2.01.2s0-8 6.99-8c-6.99 0-6.99-8-6.99-8s0 .07-.01.2v-5.73c-.0033628-.4200591-.2688919-.7932367-.6646433-.9340974s-.8373482-.0193719-1.1053567.3040974l-1.37 1.68-8.01-10.41 6.58-8.97c1.0353428-1.40624301 2.3889295-2.54736797 3.95-3.33l2.92-1.46c1.27 4.94 6.48 8.65 12.7 8.65s11.43-3.71 12.7-8.65l2.92 1.46c1.5610705.78263203 2.9146572 1.92375699 3.95 3.33z" fill="#ef314c"/><path id="Shape" d="m43.77 25.84c-.2680085-.3234693-.7096053-.4449581-1.1053567-.3040974s-.6612805.5140383-.6646433.9340974v11.53h3v-10.652z" fill="#bb193b"/><path id="Shape" d="m31.5 38h-3c-1.9291303.0093024-3.4906976 1.5708697-3.5 3.5 0 1.9329966 1.5670034 3.5 3.5 3.5-1.9291303.0093024-3.4906976 1.5708697-3.5 3.5 0 1.9329966 1.5670034 3.5 3.5 3.5-.9281576-.0018579-1.8181442.3692701-2.47 1.03-.2838139.2792522-.5142589.6079751-.68.97h3c.1657411-.3620249.3961861-.6907478.68-.97.6518558-.6607299 1.5418424-1.0318579 2.47-1.03-.9282577 0-1.8184964-.3687489-2.4748737-1.0251263-.6563774-.6563773-1.0251263-1.546616-1.0251263-2.4748737.0093024-1.9291303 1.5708697-3.4906976 3.5-3.5-.9282577 0-1.8184964-.3687489-2.4748737-1.0251263-.6563774-.6563773-1.0251263-1.546616-1.0251263-2.4748737.0093024-1.9291303 1.5708697-3.4906976 3.5-3.5z" fill="#bb193b"/><path id="Shape" d="m58.04 22.2-5.5 6.87c-.3779402.4699077-.947226.7448613-1.5502493.7487393-.6030232.0038779-1.1757981-.2637312-1.5597507-.7287393l-1.29-1.57 8.01-10.41 1.94 2.65c.5390076.7304291.5184782 1.7322653-.05 2.44z" fill="#cfd8dc"/><path id="Shape" d="m42.7 3.35c-1.27 4.94-6.48 8.65-12.7 8.65s-11.43-3.71-12.7-8.65l3.43-1.72c.1-.05.2-.09.3-.13.32 3.64 4.22 6.5 8.97 6.5s8.65-2.86 8.97-6.5c.1.04.2.08.3.13z" fill="#f5f5f5"/><path id="Shape" d="m38.97 1.5c-.32 3.64-4.22 6.5-8.97 6.5s-8.65-2.86-8.97-6.5c.7532573-.33096404 1.5672412-.50125355 2.39-.5h13.16c.8227588-.00125355 1.6367427.16903596 2.39.5z" fill="#bb193b"/><path id="Shape" d="m11.86 27.52-1.29 1.57c-.3839526.4650081-.95672747.7326172-1.55975073.7287393-.60302327-.003878-1.17230903-.2788316-1.55024927-.7487393l-5.5-6.87c-.5684782-.7077347-.58900763-1.7095709-.05-2.44l1.94-2.65z" fill="#f5f5f5"/><path id="Shape" d="m31.5 59h-14.5c-1.1032019-.0032948-1.9967052-.8967981-2-2v-3h13.35c-.2340774.4651301-.3540519.9793064-.35 1.5 0 .9282577.3687489 1.8184964 1.0251263 2.4748737.6563773.6563774 1.546616 1.0251263 2.4748737 1.0251263z" fill="#f5f5f5"/><path id="Shape" d="m28 55.5c-.0040519-.5206936.1159226-1.0348699.35-1.5h-3c-.2340774.4651301-.3540519.9793064-.35 1.5 0 .9282577.3687489 1.8184964 1.0251263 2.4748737.6563773.6563774 1.546616 1.0251263 2.4748737 1.0251263h3c-.9282577 0-1.8184964-.3687489-2.4748737-1.0251263-.6563774-.6563773-1.0251263-1.546616-1.0251263-2.4748737z" fill="#cfd8dc"/><path id="Shape" d="m59 55.5c-.0093024 1.9291303-1.5708697 3.4906976-3.5 3.5h-24c-.9282577 0-1.8184964-.3687489-2.4748737-1.0251263-.6563774-.6563773-1.0251263-1.546616-1.0251263-2.4748737.0119493-.925355.3809779-1.810307 1.03-2.47.6518558-.6607299 1.5418424-1.0318579 2.47-1.03h24c.9282577 0 1.8184964.3687489 2.4748737 1.0251263.6563774.6563773 1.0251263 1.546616 1.0251263 2.4748737z" fill="#9d27b0"/><path id="Shape" d="m55.5 52h-3c1.9329966 0 3.5 1.5670034 3.5 3.5-.0093024 1.9291303-1.5708697 3.4906976-3.5 3.5h3c1.9291303-.0093024 3.4906976-1.5708697 3.5-3.5 0-.9282577-.3687489-1.8184964-1.0251263-2.4748737-.6563773-.6563774-1.546616-1.0251263-2.4748737-1.0251263z" fill="#6a1b9a"/><path id="Shape" d="m59 48.5c-.0093024 1.9291303-1.5708697 3.4906976-3.5 3.5h-24c-.9282577 0-1.8184964-.3687489-2.4748737-1.0251263-.6563774-.6563773-1.0251263-1.546616-1.0251263-2.4748737.0093024-1.9291303 1.5708697-3.4906976 3.5-3.5h24c1.9329966 0 3.5 1.5670034 3.5 3.5z" fill="#60a917"/><path id="Shape" d="m55.5 45h-3c1.9329966 0 3.5 1.5670034 3.5 3.5-.0093024 1.9291303-1.5708697 3.4906976-3.5 3.5h3c1.9291303-.0093024 3.4906976-1.5708697 3.5-3.5 0-.9282577-.3687489-1.8184964-1.0251263-2.4748737-.6563773-.6563774-1.546616-1.0251263-2.4748737-1.0251263z" fill="#549414"/><path id="Shape" d="m59 41.5c-.0093024 1.9291303-1.5708697 3.4906976-3.5 3.5h-24c-.9282577 0-1.8184964-.3687489-2.4748737-1.0251263-.6563774-.6563773-1.0251263-1.546616-1.0251263-2.4748737.0093024-1.9291303 1.5708697-3.4906976 3.5-3.5h24c1.9329966 0 3.5 1.5670034 3.5 3.5z" fill="#02a9f4"/><path id="Shape" d="m55.5 38h-3c1.9329966 0 3.5 1.5670034 3.5 3.5-.0093024 1.9291303-1.5708697 3.4906976-3.5 3.5h3c1.9291303-.0093024 3.4906976-1.5708697 3.5-3.5 0-.9282577-.3687489-1.8184964-1.0251263-2.4748737-.6563773-.6563774-1.546616-1.0251263-2.4748737-1.0251263z" fill="#0377bc"/><path id="Shape" d="m32.981 26c-6.99 0-6.99-8-6.99-8s0 8-6.991 8c6.991 0 6.991 8 6.991 8s0-8 6.99-8z" fill="#ffdc00"/><path id="Shape" d="m22 40c-6.99 0-6.99 8-6.99 8s0-.07-.01-.2c-.05-1.23-.65-7.8-6.98-7.8 6.33 0 6.93-6.57 6.98-7.8.01-.13.01-.2.01-.2s0 8 6.99 8z" fill="#ffdc00"/><g fill="#000"><path id="Shape" d="m60 41.5c-.0027556-2.4841391-2.0158609-4.4972444-4.5-4.5h-9.5v-10.527l2.663 3.254c.5709822.6928024 1.4222285 1.0934752 2.32 1.092h.027c.8995136-.0048508 1.7486021-.4161625 2.31-1.119l5.5-6.868c.8528074-1.0609527.8844188-2.5631095.077-3.659l-8.521-11.626c-1.1299274-1.53278809-2.606025-2.77691773-4.308-3.631l-6.36-3.185c-.087-.043-.178-.074-.267-.113h-.01c-.8968535-.4025161-1.8679738-.61302201-2.851-.618h-13.16c-.9805273.00436378-1.9494109.21278443-2.845.612l-.018.008c-.092.04-.184.072-.275.116l-6.349 3.18c-1.702805.85413932-3.1793574 2.09904881-4.309 3.633l-8.518 11.616c-.80908919 1.0951935-.77911638 2.5979398.073 3.66l5.5 6.868c.56161819.7066032 1.41340292 1.1203587 2.316 1.125h.027c.90014685.0004088 1.752907-.403395 2.323-1.1l2.655-3.248v5.73.014c-.045 1.167-.556 6.786-5.981 6.786-.55228475 0-1 .4477153-1 1s.44771525 1 1 1c5.4 0 5.932 5.63 5.983 6.789v.011 9.2c0 1.6568542 1.3431458 3 3 3h38.498c1.9125606.0084892 3.6196922-1.1978565 4.2503071-3.0034825.6306149-1.8056259.0456906-3.8124722-1.4563071-4.9965175 1.0768766-.8420658 1.7061681-2.1329821 1.7061681-3.5s-.6292915-2.6579342-1.7061681-3.5c1.0728971-.8452631 1.7011359-2.1341471 1.706-3.5zm-2.74-19.925-5.5 6.871c-.1880548.2336695-.4710663.3705869-.771.373-.3007928-.0055081-.5855144-.1368064-.785-.362l-.784-.959 6.711-8.721 1.156 1.577c.2694425.365868.2583521.8674002-.027 1.221zm-27.26-12.575c4.633 0 8.594-2.564 9.687-6.043l1.807.905c-1.501 4.179-6.194 7.138-11.494 7.138s-9.993-2.959-11.494-7.138l1.808-.905c1.092 3.479 5.053 6.043 9.686 6.043zm6.58-7c.4236341.00161144.8453459.05705563 1.255.165-.722 2.764-3.983 4.835-7.835 4.835s-7.113-2.071-7.835-4.835c.4096853-.1077854.8313768-.16322691 1.255-.165zm-27.568 26.819c-.30036844-.00151-.58387674-.1390354-.771-.374l-5.5-6.871c-.28517574-.3548994-.29463019-.8576292-.023-1.223l1.154-1.574 6.71 8.72-.782.956c-.20223359.2237194-.48659548.3557961-.788.366zm3.444-3.612-.574.7-6.782-8.807 6.134-8.365c.941482-1.28132153 2.1731101-2.32138588 3.594-3.035l1.883-.943c1.868 4.843 7.244 8.243 13.289 8.243s11.421-3.4 13.289-8.239l1.884.944c1.418683.7116677 2.6491163 1.7485074 3.591 3.026l6.136 8.369-6.78 8.811-.57-.7c-.534035-.6549155-1.4220608-.9035115-2.2185063-.6210538-.7964454.2824577-1.329417 1.0350074-1.3314937 1.8800538v10.53h-12.5c-1.9125606-.0084892-3.6196922 1.1978565-4.2503071 3.0034825-.6306149 1.8056259-.0456906 3.8124722 1.4563071 4.9965175-1.0768766.8420658-1.7061681 2.1329821-1.7061681 3.5s.6292915 2.6579342 1.7061681 3.5c-.3640419.2830001-.6824254.6202708-.944 1h-11.762v-4.954c0-.016.009-.03.009-.046 0-.286.068-7 5.991-7 .5522847 0 1-.4477153 1-1s-.4477153-1-1-1c-5.894 0-5.99-6.716-5.991-7 0-.016-.008-.03-.009-.046v-5.484c-.0034654-.8427023-.5347829-1.5928213-1.3285901-1.8757159s-1.6797734-.0378629-2.2154099.6127159zm-.468 14.793c1.3398642-.8189429 2.3947492-2.0309606 3.021-3.471.6266268 1.4401103 1.6818489 2.6521143 3.022 3.471-1.3401511.8188857-2.3953732 2.0308897-3.022 3.471-.6262508-1.4400394-1.6811358-2.6520571-3.021-3.471zm4.012 17v-2h11.051c-.0266398.1655421-.0436683.3324884-.051.5-.0004885.8906013.2648345 1.7610836.762 2.5h-10.762c-.5522847 0-1-.4477153-1-1zm42-1.5c0 1.3807119-1.1192881 2.5-2.5 2.5h-24c-1.3807119 0-2.5-1.1192881-2.5-2.5s1.1192881-2.5 2.5-2.5h24c1.3807119 0 2.5 1.1192881 2.5 2.5zm0-7c0 1.3807119-1.1192881 2.5-2.5 2.5h-24c-1.3807119 0-2.5-1.1192881-2.5-2.5s1.1192881-2.5 2.5-2.5h24c1.3807119 0 2.5 1.1192881 2.5 2.5zm-26.5-4.5c-1.3807119 0-2.5-1.1192881-2.5-2.5s1.1192881-2.5 2.5-2.5h24c1.3807119 0 2.5 1.1192881 2.5 2.5s-1.1192881 2.5-2.5 2.5z"/><path id="Shape" d="m19 27c5.894 0 5.99 6.716 5.991 7 0 .5522847.4477153 1 1 1s1-.4477153 1-1c0-.286.068-7 5.99-7 .5522847 0 1-.4477153 1-1s-.4477153-1-1-1c-5.894 0-5.989-6.716-5.99-7 0-.5522847-.4477153-1-1-1s-1 .4477153-1 1c0 .286-.068 7-5.991 7-.5522847 0-1 .4477153-1 1s.4477153 1 1 1zm6.991-4.471c.6262508 1.4400394 1.6811358 2.6520571 3.021 3.471-1.3398642.8189429-2.3947492 2.0309606-3.021 3.471-.6266268-1.4401103-1.6818489-2.6521143-3.022-3.471 1.3401511-.8188857 2.3953732-2.0308897 3.022-3.471z"/></g></g></g></svg>