<svg height="512" viewBox="0 0 60 60" width="512" xmlns="http://www.w3.org/2000/svg"><g id="Icons"><path d="m48 35a6 6 0 0 1 6 6 6.009 6.009 0 0 1 -6 6 6 6 0 0 1 6 6v4a2.006 2.006 0 0 1 -2 2h-44a2.006 2.006 0 0 1 -2-2v-4a6 6 0 0 1 6-6 6 6 0 0 1 -6-6 6.009 6.009 0 0 1 6-6 6 6 0 0 1 -6-6v-4.81a3.133 3.133 0 0 1 .82-2.06c5.53-6.23 6.8-15.39 7.09-19.28a2 2 0 0 1 1.99-1.85h3.48a1.982 1.982 0 0 1 1.94 1.53c.08.35.17.69.26 1.02 2.5 9.24 8.42 13.69 8.42 16.45 0-2.76 5.92-7.21 8.42-16.45.09-.33.18-.67.26-1.02a1.982 1.982 0 0 1 1.94-1.53h3.48a2 2 0 0 1 1.99 1.85c.29 3.89 1.56 13.05 7.09 19.28a3.133 3.133 0 0 1 .82 2.06v4.81a6 6 0 0 1 -6 6z" fill="#ff9801"/><path d="m54 29v-4.81a3.133 3.133 0 0 0 -.82-2.06c-5.53-6.23-6.8-15.39-7.09-19.28a2 2 0 0 0 -1.99-1.85h-3a2 2 0 0 1 1.99 1.85c.29 3.89 1.56 13.05 7.09 19.28a3.133 3.133 0 0 1 .82 2.06v4.81a6 6 0 0 1 -6 6 6 6 0 0 1 6 6 6.009 6.009 0 0 1 -6 6 6 6 0 0 1 6 6v4a2.006 2.006 0 0 1 -2 2h3a2.006 2.006 0 0 0 2-2v-4a6 6 0 0 0 -6-6 6.009 6.009 0 0 0 6-6 6 6 0 0 0 -6-6 6 6 0 0 0 6-6z" fill="#f57c00"/><rect fill="#9e9e9e" height="6" rx="2" width="10" x="25" y="32"/><path d="m33 32h-3a2 2 0 0 1 2 2v2a2 2 0 0 1 -2 2h3a2 2 0 0 0 2-2v-2a2 2 0 0 0 -2-2z" fill="#707070"/><rect fill="#9e9e9e" height="6" rx="2" width="10" x="25" y="44"/><path d="m33 44h-3a2 2 0 0 1 2 2v2a2 2 0 0 1 -2 2h3a2 2 0 0 0 2-2v-2a2 2 0 0 0 -2-2z" fill="#707070"/><path d="m38.42 3.55c-2.5 9.24-8.42 13.69-8.42 16.45 0-2.76-5.92-7.21-8.42-16.45a29.426 29.426 0 0 0 8.42 1.45 29.426 29.426 0 0 0 8.42-1.45z" fill="#ff5722"/><path d="m35.162 4.405c-1.762 5.809-4.828 9.648-6.662 12.345a6.722 6.722 0 0 1 1.5 3.25c0-2.76 5.92-7.21 8.42-16.45-.842.266-1.976.583-3.258.855z" fill="#d84315"/></g><g id="Icons_copy" data-name="Icons copy"><path d="m55 29v-4.81a4.147 4.147 0 0 0 -1.072-2.724c-5.367-6.047-6.573-15.085-6.841-18.694a3.014 3.014 0 0 0 -2.987-2.772h-3.48a2.975 2.975 0 0 0 -2.914 2.3c-.037.158-.086.3-.125.457a27.487 27.487 0 0 1 -7.581 1.243 27.493 27.493 0 0 1 -7.583-1.242c-.039-.155-.088-.3-.125-.455a2.973 2.973 0 0 0 -2.908-2.303h-3.484a3.014 3.014 0 0 0 -2.986 2.779c-.27 3.605-1.481 12.641-6.847 18.691a4.116 4.116 0 0 0 -1.067 2.719v4.811a7 7 0 0 0 3.408 6 7 7 0 0 0 -3.408 6 7 7 0 0 0 3.413 6 7 7 0 0 0 -3.413 6v4a3 3 0 0 0 3 3h44a3 3 0 0 0 3-3v-4a7 7 0 0 0 -3.408-6 7 7 0 0 0 3.408-6 7 7 0 0 0 -3.413-6 7 7 0 0 0 3.413-6zm-25-23a28.115 28.115 0 0 0 6.911-.975 37.907 37.907 0 0 1 -5.381 9.928c-.592.843-1.113 1.588-1.53 2.276-.417-.687-.937-1.432-1.529-2.273a37.892 37.892 0 0 1 -5.383-9.932 28.06 28.06 0 0 0 6.912.976zm-3 31a1 1 0 0 1 -1-1v-2a1 1 0 0 1 1-1h6a1 1 0 0 1 1 1v2a1 1 0 0 1 -1 1zm-20 20v-4a5.006 5.006 0 0 1 5-5h7a1 1 0 0 0 0-2h-7a5.006 5.006 0 0 1 -5-5 5.009 5.009 0 0 1 5-5h7a1 1 0 0 0 0-2h-7a5.006 5.006 0 0 1 -5-5v-4.811a2.121 2.121 0 0 1 .563-1.389c5.769-6.5 7.059-16.061 7.346-19.867a1 1 0 0 1 .991-.933h3.483a.994.994 0 0 1 .961.76 36.647 36.647 0 0 0 6.49 13.347c1.166 1.651 2.166 3.077 2.166 3.893v11h-2a3 3 0 0 0 -3 3v2a3 3 0 0 0 3 3h2v4h-2a3 3 0 0 0 -3 3v2a3 3 0 0 0 3 3h2v7h-21a1 1 0 0 1 -1-1zm20-8a1 1 0 0 1 -1-1v-2a1 1 0 0 1 1-1h6a1 1 0 0 1 1 1v2a1 1 0 0 1 -1 1zm14-15a1 1 0 0 0 0 2h7a5.006 5.006 0 0 1 5 5 5.009 5.009 0 0 1 -5 5h-7a1 1 0 0 0 0 2h7a5.006 5.006 0 0 1 5 5v4a1 1 0 0 1 -1 1h-21v-7h2a3 3 0 0 0 3-3v-2a3 3 0 0 0 -3-3h-2v-4h2a3 3 0 0 0 3-3v-2a3 3 0 0 0 -3-3h-2v-11c0-.817 1-2.244 2.166-3.9a36.611 36.611 0 0 0 6.487-13.342.985.985 0 0 1 .967-.758h3.48a.992.992 0 0 1 .993.924c.284 3.807 1.567 13.367 7.336 19.867a2.147 2.147 0 0 1 .571 1.399v4.81a5.006 5.006 0 0 1 -5 5z"/><path d="m12 54h-2a1 1 0 0 0 0 2h2a1 1 0 0 0 0-2z"/><path d="m25 54h-10a1 1 0 0 0 0 2h10a1 1 0 0 0 0-2z"/><path d="m48 56h2a1 1 0 0 0 0-2h-2a1 1 0 0 0 0 2z"/><path d="m34 55a1 1 0 0 0 1 1h10a1 1 0 0 0 0-2h-10a1 1 0 0 0 -1 1z"/></g></svg>